HIERARCHY
ROOT pelvis
{
  OFFSET 0 100 0
  CHANNELS 6 Xposition Yposition Zposition Zrotation Xrotation Yrotation
  JOINT pelvis_right_femur
  {
    OFFSET -10.78128 -3.44521 -0.5502486
    CHANNELS 3 Zrotation Xrotation Yrotation
    JOINT right_femur_tibia
    {
      OFFSET -0.8047443 -44.0398 -0.1307829
      CHANNELS 3 Zrotation Xrotation Yrotation
      JOINT right_tibia_foot
      {
        OFFSET 3.006224 -47.83518 -5
        CHANNELS 3 Zrotation Xrotation Yrotation
        End Site
        {
          OFFSET 0 -5 15
        }
      }
    }
  }
  JOINT pelvis_left_femur
  {
    OFFSET 10.78128 -3.44521 -0.5502486
    CHANNELS 3 Zrotation Xrotation Yrotation
    JOINT left_femur_tibia
    {
      OFFSET 0.8047443 -44.0398 -0.1307829
      CHANNELS 3 Zrotation Xrotation Yrotation
      JOINT left_tibia_foot
      {
        OFFSET -4.370144 -48.10324 -4.275266
        CHANNELS 3 Zrotation Xrotation Yrotation
        End Site
        {
          OFFSET 0 -5 15
        }
      }
    }
  }
  JOINT pelvis_spine1
  {
    OFFSET 0 6.468898 -3.129235
    CHANNELS 3 Zrotation Xrotation Yrotation
    JOINT spine1
    {
      OFFSET 0 23.15396 4.99043
      CHANNELS 3 Zrotation Xrotation Yrotation
      JOINT spine2
      {
        OFFSET 0 20.79997 -5.064912
        CHANNELS 3 Zrotation Xrotation Yrotation
        JOINT neck
        {
          OFFSET 0 14.38658 9.616178
          CHANNELS 3 Zrotation Xrotation Yrotation
          End Site
          {
            OFFSET 0 20 0
          }
        }
      }
      JOINT right_manubrium
      {
        OFFSET -5.722621 16.35077 3.967754
        CHANNELS 3 Zrotation Xrotation Yrotation
        JOINT right_clavicle
        {
          OFFSET -13.16364 1.694482 -4.693211
          CHANNELS 3 Zrotation Xrotation Yrotation
          JOINT right_humerus
          {
            OFFSET -28.5034 -0.3100689 -2.792744
            CHANNELS 3 Zrotation Xrotation Yrotation
            JOINT right_radius
            {
              OFFSET -25.15693 0.02248979 -1.271978
              CHANNELS 3 Zrotation Xrotation Yrotation
              End Site
              {
                OFFSET -15 0 0
              }
            }
          }
        }
      }
      JOINT left_manubrium
      {
        OFFSET 5.722621 16.35077 3.967754
        CHANNELS 3 Zrotation Xrotation Yrotation
        JOINT left_clavicle
        {
          OFFSET 13.16364 1.694482 -4.693211
          CHANNELS 3 Zrotation Xrotation Yrotation
          JOINT left_humerus
          {
            OFFSET 29.39168 -1.063119 -2.237045
            CHANNELS 3 Zrotation Xrotation Yrotation
            JOINT left_radius
            {
              OFFSET 24.59957 -0.9528479 0.9047498
              CHANNELS 3 Zrotation Xrotation Yrotation
              End Site
              {
                OFFSET 15 -0 -0
              }
            }
          }
        }
      }
    }
  }
}
MOTION
Frames: 9
Frame Time: 0.0416666666667
-483.0227 117.5325 766.0712 -11.15116 7.927126 -119.1436 6.802006 19.94206 -0.7058302 -0 16.22566 -0 -8.388261 -8.809949 -3.760915 2.742975 -11.47619 -5.674692 -0 10.8231 -0 -0.07516747 -3.208718 17.08887 2.485449 -3.615729 6.475799 -0.1169958 15.61226 -4.301862 3.417066 20.89181 -0.3793905 -2.20689 -19.11011 5.610383 -7.364456 -32.43689 10.25517 94.33245 5.043879 -7.343441 -0 0 29.22647 -25.53292 15.9908 16.98274 1.925453 -18.6602 -8.184626 -98.57074 14.2528 38.00181 0 0 -1.153703 -0.05363789 16.47996 11.75865
-489.1778 117.1466 763.6923 -11.32166 8.120322 -120.0555 6.558417 20.80149 -1.316139 -0 15.98154 -0 -8.375366 -8.346988 -3.528543 2.257074 -11.28541 -6.145965 -0 10.66284 -0 -1.039073 -3.728897 17.47223 2.375028 -3.295346 6.313117 -0.2114391 14.98278 -3.859176 3.581594 21.45583 -0.1889632 -2.064869 -19.09896 5.883912 -7.870562 -31.86151 9.856222 94.59945 4.453203 -6.985921 -0 0 28.55443 -25.54234 14.98414 16.82624 2.266071 -18.12012 -7.984398 -99.17493 15.19081 37.48951 0 0 -0.09898386 -0.569373 16.35022 12.2604
-495.3537 116.738 761.1518 -11.69364 8.406558 -120.9415 6.365857 21.51149 -1.985601 -0 15.80041 -0 -8.367493 -7.459056 -3.388516 1.769956 -10.8578 -6.577424 -0 10.89609 -0 -1.915918 -4.251647 17.83017 2.288489 -3.00239 6.137301 -0.3305502 14.52011 -3.425509 3.782425 22.02961 -0.07410563 -1.945348 -18.98422 6.112466 -8.471207 -31.34244 9.517029 95.14464 3.501713 -6.722343 -0 0 27.80557 -25.72616 14.04783 16.69909 2.58083 -17.69278 -7.97953 -99.73106 15.9636 36.9603 -0 0 0.8856861 -1.074917 16.36927 12.72957
-501.5397 116.3213 758.4461 -12.23923 8.794134 -121.8017 6.235478 22.0221 -2.705746 -0 15.65192 -0 -8.364548 -6.199289 -3.340304 1.312278 -10.19186 -6.940013 -0 11.45653 -0 -2.681264 -4.762966 18.12626 2.23619 -2.747306 5.950873 -0.4683693 14.23974 -3.02136 4.007531 22.58889 -0.03918105 -1.855846 -18.77416 6.282104 -9.145011 -30.90756 9.252293 95.95318 2.21634 -6.557488 -0 0 27.01075 -26.08158 13.2235 16.61016 2.85897 -17.40148 -8.175345 -100.2116 16.54496 36.42873 -0 0 1.742734 -1.563091 16.53692 13.15931
-507.7255 115.9068 755.5726 -12.92624 9.285168 -122.6378 6.173885 22.29408 -3.468154 -0 15.48235 -0 -8.362603 -4.632897 -3.381387 0.9111483 -9.294588 -7.205527 -0 12.2818 -0 -3.31121 -5.247777 18.32922 2.22525 -2.542835 5.759137 -0.6184368 14.15233 -2.666942 4.245281 23.11103 -0.08735576 -1.802033 -18.47665 6.379624 -9.87135 -30.58099 9.072481 97.0027 0.6317035 -6.492787 -0 0 26.19746 -26.60614 12.54796 16.56878 3.088968 -17.26784 -8.573395 -100.5881 16.91497 35.9035 -0 0 2.410482 -2.029255 16.8507 13.54551
-513.9025 115.5014 752.5284 -13.71931 9.875202 -123.4551 6.182435 22.30237 -4.260265 -0 15.22568 -0 -8.353884 -2.831378 -3.509518 0.5877377 -8.183757 -7.348628 -0 13.32335 -0 -3.778817 -5.688886 18.41745 2.25774 -2.404501 5.570847 -0.7738678 14.26479 -2.38182 4.485298 23.57496 -0.2212681 -1.787554 -18.09771 6.393017 -10.62875 -30.38186 8.984391 98.26232 -1.207013 -6.527089 -0 0 25.38958 -27.29699 12.05328 16.58428 3.257691 -17.31071 -9.170753 -100.8319 17.05802 35.38886 -0 0 2.826345 -2.469146 17.30609 13.88479
-520.064 115.1107 749.3099 -14.58024 10.55349 -124.2631 6.257222 22.03858 -5.060572 -0 14.82055 -0 -8.327762 -0.8679917 -3.724918 0.3556815 -6.889786 -7.349068 -0 14.55334 -0 -4.05146 -6.066079 18.38342 2.329584 -2.350276 5.398065 -0.9274376 14.58073 -2.184446 4.719099 23.96114 -0.4432261 -1.814003 -17.64112 6.312549 -11.3929 -30.32288 8.991538 99.69086 -3.239885 -6.657398 -0 0 24.60795 -28.14809 11.7667 16.66485 3.349922 -17.54428 -9.958137 -100.9149 16.96114 34.88677 -0 0 2.932069 -2.875705 17.89638 14.1716
-526.2045 114.7412 745.9118 -15.46729 11.30391 -125.0765 6.39003 21.51244 -5.834124 -0 14.23132 -0 -8.273016 1.183926 -4.031422 0.2206238 -5.457636 -7.194426 -0 15.96672 -0 -4.090993 -6.355721 18.23713 2.430773 -2.398854 5.255015 -1.071756 15.09955 -2.091247 4.940364 24.2516 -0.7544176 -1.880943 -17.10963 6.132813 -12.13504 -30.40893 9.094001 101.2343 -5.387873 -6.879527 -0 0 23.87218 -29.14546 11.70948 16.81552 3.34888 -17.97493 -10.91668 -100.8126 16.61367 34.40017 -0 0 2.682022 -3.235157 18.61157 14.39475
-532.3175 114.4043 742.3284 -16.3335 12.10634 -125.9148 6.570237 20.7526 -6.529902 -0 13.4687 -0 -8.181307 3.248654 -4.43526 0.1810739 -3.948948 -6.883611 -0 17.57611 -0 -3.858607 -6.531317 18.00701 2.547326 -2.566141 5.156048 -1.199603 15.8137 -2.114925 5.144611 24.43023 -1.152692 -1.985829 -16.50846 5.855771 -12.82137 -30.63586 9.287591 102.8233 -7.550012 -7.188549 -0 0 23.20405 -30.26065 11.89434 17.03527 3.238472 -18.59685 -12.01366 -100.5101 16.00935 33.93785 -0 0 2.054829 -3.523301 19.43597 14.5344
